<svg xmlns="http://www.w3.org/2000/svg" viewBox="0 0 1200 800" width="1200" height="800" role="img" aria-label="Impressora imprimindo uma folha">
  <defs>
    <linearGradient id="bg" x1="0" y1="0" x2="1" y2="1">
      <stop offset="0" stop-color="#1a5fb4"/>
      <stop offset="0.5" stop-color="#2272d9"/>
      <stop offset="1" stop-color="#5299e8"/>
    </linearGradient>
    <linearGradient id="dev" x1="0" y1="0" x2="0" y2="1">
      <stop offset="0" stop-color="#f1f3f5"/>
      <stop offset="1" stop-color="#ced4da"/>
    </linearGradient>
  </defs>
  <rect width="1200" height="800" fill="url(#bg)"/>
  <circle cx="980" cy="150" r="220" fill="#ffffff" opacity="0.08"/>
  <circle cx="200" cy="680" r="160" fill="#ffffff" opacity="0.06"/>

  <g transform="translate(600 360)">
    <!-- folha de entrada (alimentação) -->
    <rect x="-130" y="-205" width="260" height="120" rx="6" fill="#ffffff" stroke="#adb5bd" stroke-width="2"/>
    <line x1="-100" y1="-175" x2="100" y2="-175" stroke="#ced4da" stroke-width="4"/>
    <line x1="-100" y1="-150" x2="80" y2="-150" stroke="#e9ecef" stroke-width="4"/>
    <line x1="-100" y1="-125" x2="100" y2="-125" stroke="#e9ecef" stroke-width="4"/>

    <!-- corpo da impressora -->
    <rect x="-270" y="-110" width="540" height="220" rx="24" fill="url(#dev)" stroke="#adb5bd" stroke-width="3"/>
    <rect x="-270" y="-110" width="540" height="58" rx="24" fill="#003366"/>
    <rect x="-215" y="-92" width="150" height="12" rx="6" fill="#ffffff" opacity="0.55"/>
    <circle cx="225" cy="-81" r="12" fill="#28a745"/>
    <rect x="-150" y="-34" width="130" height="38" rx="9" fill="#e9ecef" stroke="#ced4da" stroke-width="2"/>
    <circle cx="-118" cy="-15" r="9" fill="#0066cc"/>
    <circle cx="-90" cy="-15" r="9" fill="#adb5bd"/>

    <!-- slot de saída -->
    <rect x="-160" y="100" width="320" height="18" rx="6" fill="#343a40"/>

    <!-- folha sendo impressa (saindo) -->
    <rect x="-130" y="116" width="260" height="180" rx="6" fill="#ffffff" stroke="#ced4da" stroke-width="2"/>
    <rect x="-100" y="146" width="200" height="12" rx="4" fill="#0066cc"/>
    <line x1="-100" y1="176" x2="90" y2="176" stroke="#adb5bd" stroke-width="5"/>
    <line x1="-100" y1="198" x2="70" y2="198" stroke="#ced4da" stroke-width="5"/>
    <line x1="-100" y1="220" x2="100" y2="220" stroke="#ced4da" stroke-width="5"/>
    <line x1="-100" y1="242" x2="60" y2="242" stroke="#ced4da" stroke-width="5"/>
    <line x1="-100" y1="264" x2="95" y2="264" stroke="#e9ecef" stroke-width="5"/>
  </g>

  <text x="600" y="700" text-anchor="middle" font-family="Segoe UI, Arial, sans-serif" font-size="42" font-weight="700" fill="#ffffff" opacity="0.92">Manutenção de Impressoras</text>
</svg>
