<svg xmlns="http://www.w3.org/2000/svg" viewBox="0 0 1200 800" width="1200" height="800" role="img" aria-label="Ilustração de manutenção de impressoras">
  <defs>
    <linearGradient id="bg" x1="0" y1="0" x2="1" y2="1">
      <stop offset="0" stop-color="#1a5fb4"/>
      <stop offset="0.5" stop-color="#2272d9"/>
      <stop offset="1" stop-color="#5299e8"/>
    </linearGradient>
    <linearGradient id="dev" x1="0" y1="0" x2="0" y2="1">
      <stop offset="0" stop-color="#f1f3f5"/>
      <stop offset="1" stop-color="#ced4da"/>
    </linearGradient>
  </defs>
  <rect width="1200" height="800" fill="url(#bg)"/>
  <circle cx="980" cy="150" r="220" fill="#ffffff" opacity="0.08"/>
  <circle cx="200" cy="680" r="160" fill="#ffffff" opacity="0.06"/>
  <g transform="translate(600 410)">
    <rect x="-230" y="-150" width="460" height="260" rx="22" fill="url(#dev)" stroke="#adb5bd" stroke-width="3"/>
    <rect x="-230" y="-150" width="460" height="60" rx="22" fill="#003366"/>
    <rect x="-150" y="-60" width="300" height="14" rx="7" fill="#adb5bd"/>
    <rect x="-150" y="-30" width="220" height="12" rx="6" fill="#ced4da"/>
    <rect x="-190" y="20" width="380" height="90" rx="12" fill="#ffffff" stroke="#dee2e6" stroke-width="2"/>
    <rect x="-150" y="48" width="160" height="10" rx="5" fill="#0066cc"/>
    <rect x="-150" y="70" width="220" height="8" rx="4" fill="#adb5bd"/>
    <circle cx="150" cy="-120" r="12" fill="#28a745"/>
    <rect x="-120" y="135" width="240" height="14" rx="7" fill="#003366" opacity="0.25"/>
  </g>
  <text x="600" y="700" text-anchor="middle" font-family="Segoe UI, Arial, sans-serif" font-size="42" font-weight="700" fill="#ffffff" opacity="0.92">Manutenção de Impressoras</text>
</svg>
